<?xml version="1.0" encoding="UTF-8"?>
<!-- Generator: Adobe Illustrator 21.1.0, SVG Export Plug-In . SVG Version: 6.00 Build 0)  -->
<svg version="1.1" id="Layer_1" xmlns="http://www.w3.org/2000/svg" xmlns:xlink="http://www.w3.org/1999/xlink" x="0px" y="0px" viewBox="0 0 350 225" style="enable-background:new 0 0 350 225;" xml:space="preserve">
<style type="text/css">
	.st0{fill:#868686;}
	.st1{fill:#93C02F;}
	.st2{fill:#48BDD7;}
	.st3{fill:#0061A6;}
</style>
<path class="st0" d="M9,223.5c-0.7,0.8-1.7,1.5-3.7,1.5c-1.9,0-3.2-0.6-3.9-1.8c-0.3-0.6-0.4-1-0.4-2.3v-9h1.8v8.3  c0,0.9,0.1,2.1,0.5,2.5c0.4,0.4,1,0.7,2,0.7c1,0,1.7-0.3,2.1-0.8c0.3-0.4,0.5-1.1,0.5-2.1v-8.6h1.8v8.9C9.7,222.4,9.6,222.7,9,223.5  "/>
<path class="st0" d="M21.4,224.8l-3.4-6.8c-0.7-1.3-1.3-2.8-1.6-3.5l-0.1,0c0.1,1.1,0.1,2.4,0.1,3.6l0.1,6.8h-1.8v-12.9h2.1l3.6,7.1  c0.5,1.1,1.2,2.7,1.3,3.1l0.1,0c0-0.4-0.2-2.4-0.2-3.8l0-6.3h1.7v12.9H21.4z"/>
<rect x="28.3" y="211.9" class="st0" width="1.8" height="12.9"/>
<path class="st0" d="M39.2,224.8h-1.8l-4.3-12.9h2l2.5,7.7c0.1,0.4,0.4,1.1,0.5,1.7c0.1,0.4,0.2,0.7,0.2,1h0.1  c0.1-0.3,0.1-0.5,0.3-1c0.1-0.5,0.3-1,0.5-1.7l2.5-7.7h1.9L39.2,224.8z"/>
<polygon class="st0" points="46.6,224.8 46.6,211.9 53.7,211.9 53.4,213.4 48.5,213.4 48.5,217.3 52.6,217.3 52.6,218.8 48.5,218.8   48.5,223.2 53.9,223.2 53.9,224.8 "/>
<path class="st0" d="M64.2,224.8c-0.4-0.7-0.5-1-1.1-1.9c-1-1.6-1.3-2.2-2.2-3.2c-0.3-0.4-0.6-0.6-1.2-0.6v5.7H58v-12.9h3.6  c1.5,0,2.4,0.4,3.1,0.9c0.6,0.5,1.1,1.4,1.1,2.7c0,2-1.3,3.6-3.4,3.5c0.6,0.5,0.9,0.9,1.1,1.2c0.3,0.4,0.7,0.9,1.1,1.6  c0.6,0.9,1.6,2.6,1.9,3H64.2z M62.7,213.6c-0.4-0.1-0.9-0.2-1.6-0.2h-1.3v4.5H61c1.1,0,1.8-0.2,2.2-0.6c0.4-0.4,0.6-1,0.6-1.7  C63.9,214.6,63.4,213.9,62.7,213.6"/>
<path class="st0" d="M73.2,225c-1.5,0-2.9-0.4-4.2-1.1l0.7-1.4c1.1,0.7,2.2,1.1,3.5,1.1c1.7,0,2.8-0.9,2.8-2.2c0-1-0.7-1.8-2.1-2.2  l-1.3-0.4c-1.9-0.6-3.1-1.5-3.1-3.3c0-2.2,1.7-3.7,4.3-3.7c1.4,0,2.8,0.4,3.9,1.2l-0.8,1.3c-1.2-0.7-2-1-3.1-1  c-1.4,0-2.3,0.7-2.3,1.9c0,0.9,0.5,1.4,1.9,1.9l1.5,0.4c1.7,0.5,3.1,1.6,3.1,3.6C78,222.8,76.6,225,73.2,225"/>
<rect x="82.1" y="211.9" class="st0" width="1.8" height="12.9"/>
<polygon class="st0" points="95.8,213.4 92.4,213.4 92.4,224.8 90.6,224.8 90.6,213.4 87.3,213.4 87.3,211.9 95.9,211.9 "/>
<path class="st0" d="M103.4,219.6v5.1h-1.9v-5.2l-4.1-7.7h2.2l2.1,4.4c0.3,0.5,0.5,1.1,0.7,1.7c0.2-0.5,0.5-1.1,0.7-1.6l2.2-4.4h2.1  L103.4,219.6z"/>
<path class="st0" d="M120.4,225c-3.6,0-5.3-2.8-5.3-6.7c0-4.2,2.1-6.6,5.2-6.6c3.8,0,5.3,3.2,5.3,6.8  C125.6,222.4,123.7,225,120.4,225 M120.3,213.1c-2.3,0-3.2,1.7-3.2,5c0,3.3,0.8,5.5,3.3,5.5c2,0,3.1-1.4,3.1-5  C123.6,215.1,122.8,213.1,120.3,213.1"/>
<polygon class="st0" points="136,213.4 131.3,213.4 131.3,217.3 135.2,217.3 135.2,218.7 131.3,218.7 131.3,224.8 129.5,224.8   129.5,211.9 136.2,211.9 "/>
<path class="st0" d="M151.6,224.8l-1.1-3.6H146l-1.1,3.6H143l4.2-12.9h2.2l4.2,12.9H151.6z M148.3,213.7h-0.1  c-0.2,0.7-1.6,5.4-1.8,6h3.6C149.9,219,148.5,214.4,148.3,213.7"/>
<path class="st0" d="M163.2,218.9c-0.7,0.5-1.3,0.8-2.7,0.8h-2.1v5.1h-1.8v-12.9h3.4c1.7,0,2.4,0.2,3.1,0.6c1.1,0.7,1.7,1.8,1.7,3.1  C164.8,217.1,164.3,218,163.2,218.9 M162.1,214c-0.4-0.4-1.1-0.6-2.1-0.6h-1.7v4.9h2c0.9,0,1.4-0.2,1.9-0.7c0.4-0.4,0.5-1,0.5-1.7  C162.8,215,162.6,214.4,162.1,214"/>
<path class="st0" d="M174.8,218.9c-0.7,0.5-1.3,0.8-2.7,0.8h-2.1v5.1h-1.8v-12.9h3.4c1.7,0,2.4,0.2,3.1,0.6c1.1,0.7,1.7,1.8,1.7,3.1  C176.3,217.1,175.9,218,174.8,218.9 M173.7,214c-0.4-0.4-1.1-0.6-2.1-0.6h-1.7v4.9h2c0.9,0,1.4-0.2,1.9-0.7c0.4-0.4,0.5-1,0.5-1.7  C174.3,215,174.1,214.4,173.7,214"/>
<polygon class="st0" points="186.1,224.8 179.6,224.8 179.6,211.9 181.4,211.9 181.4,223.3 186.4,223.3 "/>
<rect x="189.5" y="211.9" class="st0" width="1.8" height="12.9"/>
<polygon class="st0" points="196.3,224.8 196.3,211.9 203.3,211.9 203,213.4 198.1,213.4 198.1,217.3 202.2,217.3 202.2,218.8   198.1,218.8 198.1,223.2 203.5,223.2 203.5,224.8 "/>
<path class="st0" d="M214.9,223c-0.9,1.1-2.1,1.7-4.3,1.7h-3.2v-12.9h3c2.2,0,3.6,0.5,4.8,2.1c0.8,1.1,1.1,2.5,1.1,4.3  C216.3,220.4,215.7,222,214.9,223 M213.3,214.5c-0.7-0.9-1.5-1.1-2.7-1.1h-1.5v10h1.4c1.5,0,2.4-0.4,3-1.4c0.5-0.9,0.7-2,0.7-3.3  C214.3,216.8,214.1,215.4,213.3,214.5"/>
<path class="st0" d="M228.9,225c-1.5,0-2.9-0.4-4.2-1.1l0.7-1.4c1.1,0.7,2.2,1.1,3.5,1.1c1.7,0,2.8-0.9,2.8-2.2c0-1-0.7-1.8-2.1-2.2  l-1.3-0.4c-1.9-0.6-3.1-1.5-3.1-3.3c0-2.2,1.7-3.7,4.3-3.7c1.4,0,2.8,0.4,3.9,1.2l-0.8,1.3c-1.2-0.7-2-1-3.1-1  c-1.4,0-2.3,0.7-2.3,1.9c0,0.9,0.5,1.4,1.9,1.9l1.5,0.4c1.7,0.5,3.1,1.6,3.1,3.6C233.8,222.8,232.3,225,228.9,225"/>
<path class="st0" d="M242.2,225c-1.7,0-3-0.7-4-1.9c-0.9-1.2-1.4-2.7-1.4-4.6c0-1.5,0.3-2.8,0.8-3.8c1-1.8,2.7-3,4.6-3  c1.2,0,2.4,0.4,3.2,1l-0.9,1.2c-0.7-0.5-1.4-0.7-2.3-0.7c-1.3,0-2.3,0.7-2.9,1.9c-0.4,0.8-0.6,1.9-0.6,3.5c0,1.4,0.1,2.3,0.5,3  c0.6,1.4,1.8,2.1,3.2,2.1c1,0,1.7-0.3,2.4-0.8l0.9,1.2C244.7,224.6,243.6,225,242.2,225"/>
<rect x="249.1" y="211.9" class="st0" width="1.8" height="12.9"/>
<polygon class="st0" points="255.9,224.8 255.9,211.9 262.9,211.9 262.7,213.4 257.7,213.4 257.7,217.3 261.9,217.3 261.9,218.8   257.7,218.8 257.7,223.2 263.1,223.2 263.1,224.8 "/>
<path class="st0" d="M273.7,224.8l-3.4-6.8c-0.7-1.3-1.3-2.8-1.6-3.5l-0.1,0c0.1,1.1,0.1,2.4,0.2,3.6l0.1,6.8h-1.8v-12.9h2.1  l3.6,7.1c0.5,1.1,1.2,2.7,1.3,3.1l0.1,0c0-0.4-0.2-2.4-0.2-3.8l0-6.3h1.7v12.9H273.7z"/>
<path class="st0" d="M284.9,225c-1.7,0-3-0.7-4-1.9c-0.9-1.2-1.4-2.7-1.4-4.6c0-1.5,0.3-2.8,0.8-3.8c1-1.8,2.7-3,4.6-3  c1.2,0,2.4,0.4,3.2,1l-0.9,1.2c-0.7-0.5-1.4-0.7-2.3-0.7c-1.3,0-2.3,0.7-2.9,1.9c-0.4,0.8-0.6,1.9-0.6,3.5c0,1.4,0.1,2.3,0.5,3  c0.6,1.4,1.8,2.1,3.2,2.1c1,0,1.7-0.3,2.4-0.8l0.9,1.2C287.3,224.6,286.2,225,284.9,225"/>
<polygon class="st0" points="291.7,224.8 291.7,211.9 298.8,211.9 298.5,213.4 293.5,213.4 293.5,217.3 297.7,217.3 297.7,218.8   293.6,218.8 293.6,223.2 299,223.2 299,224.8 "/>
<path class="st0" d="M306.1,225c-1.5,0-2.9-0.4-4.2-1.1l0.7-1.4c1.1,0.7,2.2,1.1,3.5,1.1c1.7,0,2.8-0.9,2.8-2.2c0-1-0.7-1.8-2.1-2.2  l-1.3-0.4c-1.9-0.6-3.1-1.5-3.1-3.3c0-2.2,1.7-3.7,4.3-3.7c1.4,0,2.8,0.4,3.9,1.2l-0.8,1.3c-1.2-0.7-2-1-3.1-1  c-1.4,0-2.3,0.7-2.3,1.9c0,0.9,0.5,1.4,1.9,1.9l1.5,0.4c1.7,0.5,3.1,1.6,3.1,3.6C311,222.8,309.5,225,306.1,225"/>
<path class="st0" d="M37.8,66.3l2.2-11.5c2.2-12.6,6.1-26.3,25.4-26.3c7,0,12.8,1.6,16.8,2.7l2.5-13.5c-5.2-1.3-11.7-2-17.3-2  c-30.3,0-38.8,15.9-43.3,39.7l-2.2,10.8H4.1L1.7,78.9h17.7L1.2,173.2h15.9l18.2-94.3h30.3l2.5-12.6H37.8z M136.4,63.9  c-21.1,0-29.9,12.8-37.7,24.2l-0.4-0.4l13.7-69.4H96L65.9,173.2h15.9l7-36.4c4.5-22.9,17.3-58.2,39.7-58.2c7.4,0,12.3,4.9,12.3,12.8  c0,4.9-0.9,12.6-1.8,18l-5.5,28.6h15.9l6.5-33.7c1.1-5.4,2-11.5,2-16.4C157.9,74.2,149.4,63.9,136.4,63.9"/>
<path class="st0" d="M229.7,65.2c1.9-14.1,14.8-24,28.9-22.1c14.1,1.9,24,14.8,22.1,28.9c-1.9,14.1-14.8,24-28.9,22.1  C237.7,92.2,227.8,79.2,229.7,65.2"/>
<path class="st0" d="M266.2,21.1c0.6-4.7,4.9-8,9.6-7.4c4.7,0.6,8,4.9,7.4,9.6c-0.6,4.7-4.9,8-9.6,7.4  C268.8,30.1,265.5,25.7,266.2,21.1"/>
<path class="st0" d="M293.4,48.4c0.6-4.7,4.9-8,9.6-7.4c4.7,0.6,8,4.9,7.4,9.6c-0.6,4.7-4.9,8-9.6,7.4  C296.1,57.4,292.8,53.1,293.4,48.4"/>
<path class="st0" d="M293.2,87c0.6-4.7,4.9-8,9.6-7.4c4.7,0.6,8,4.9,7.4,9.6c-0.6,4.7-4.9,8-9.6,7.4C295.9,96,292.6,91.7,293.2,87"/>
<path class="st0" d="M265.7,114.1c0.6-4.7,4.9-8,9.6-7.4c4.7,0.6,8,4.9,7.4,9.6c-0.6,4.7-4.9,8-9.6,7.4  C268.4,123.1,265.1,118.7,265.7,114.1"/>
<path class="st0" d="M227.3,114c0.6-4.7,4.9-8,9.6-7.4c4.7,0.6,8,4.9,7.4,9.6c-0.6,4.7-4.9,8-9.6,7.4  C229.9,122.9,226.6,118.6,227.3,114"/>
<path class="st0" d="M200.1,86.4c0.6-4.7,4.9-8,9.6-7.4c4.7,0.6,8,4.9,7.4,9.6c-0.6,4.7-4.9,8-9.6,7.4  C202.8,95.4,199.5,91.1,200.1,86.4"/>
<path class="st0" d="M200.3,47.9c0.6-4.7,4.9-8,9.6-7.4c4.7,0.6,8,4.9,7.4,9.6c-0.6,4.7-4.9,8-9.6,7.4  C203,56.9,199.7,52.6,200.3,47.9"/>
<path class="st0" d="M227.6,21.1c0.6-4.7,4.9-8,9.6-7.4c4.7,0.6,8,4.9,7.4,9.6c-0.6,4.7-4.9,8-9.6,7.4  C230.3,30.1,227,25.8,227.6,21.1"/>
<path class="st0" d="M333.3,0c-4.2,4.8-13.1,12.4-31.4,21.5c0,0-15.7,7.1-28.3,24c1.9,1.5,3.5,3.3,5,5.2c6.5-7.9,16-15.8,29.6-20.9  c0,0,25.5-9,41.8-22.4L333.3,0z"/>
<path class="st0" d="M177.6,136.9c4.2-4.8,13.1-12.4,31.4-21.6c0,0,15.7-7.1,28.3-24c-1.9-1.5-3.5-3.3-5-5.2  c-6.5,7.9-16,15.8-29.6,20.9c0,0-25.5,9-41.8,22.4L177.6,136.9z"/>
<polygon class="st0" points="116.6,148.2 116.6,159.4 123.5,148.2 129.6,148.2 121.8,159.6 130.5,172.7 124,172.7 116.6,159.9   116.6,172.7 111.5,172.7 111.5,148.2 "/>
<path class="st0" d="M137.6,154.2v11.6c0,1.6,0.1,2.5,0.4,3c0.2,0.5,1,0.8,1.7,0.8c1.2,0,2.6-0.8,2.9-1.7v-12.7l4.5-1V168  c0,1.2,0.4,2.4,1.1,3.3l-3.3,1.9c-0.6-0.4-1.1-1-1.4-1.8c-1.2,1.1-2.8,1.7-4.7,1.7c-2.5,0-4.7-1.2-5.3-2.9c-0.3-0.8-0.4-1.8-0.4-3.6  v-11.5L137.6,154.2z"/>
<path class="st0" d="M159.9,150.1c-1.2,0-2,0.7-2,2v2.6h4.6l-1.2,3.2h-3.3v14.8h-4.6v-14.8h-1.6v-3.2h1.7c-0.1-0.7-0.2-1.7-0.2-2.5  c0-3.6,2.1-5.6,5.8-5.6c1.5,0,2.8,0.3,4.3,1.1l-1.5,2.9C160.8,150.2,160.4,150.1,159.9,150.1"/>
<path class="st0" d="M175.8,159c-1.8-0.9-3.1-1.3-4.4-1.3c-1.4,0-2.3,0.7-2.3,1.8c0,0.9,0.6,1.4,2.3,1.8l2.2,0.6  c2.2,0.6,3,1.2,3.6,2c0.7,0.8,1,1.9,1,3.1c0,3.7-3.1,6.3-7.7,6.3c-2.2,0-4.6-0.7-7.3-2.1l1.7-3.4c1.4,0.9,3.9,2,6,2  c1.3,0,2.4-0.9,2.4-2c0-1.2-0.9-1.9-2.8-2.2l-2.1-0.4c-1.2-0.2-2.7-1.1-3.3-1.8c-0.6-0.8-1-2.1-1-3.2c0-3.5,2.8-5.9,7-5.9  c2.9,0,4.8,0.9,6.4,1.7L175.8,159z"/>
<path class="st0" d="M190.1,157.9h-3v9c0,2.3,0.4,2.9,2,2.9c0.4,0,0.8-0.1,1.7-0.4l0.6,2.8c-1.4,0.6-2.6,0.8-3.8,0.8  c-2.4,0-4.3-1.1-4.9-2.6c-0.3-0.8-0.3-1.1-0.3-2.8v-9.8h-1.8v-3.2h1.8c0-1.8,0-2.9,0.2-4.3l4.8-1.2c-0.2,1.7-0.3,3.6-0.3,5.5h4.2  L190.1,157.9z"/>
<path class="st0" d="M209.6,170.7c-2.1,1.7-4.3,2.5-6.8,2.5c-5.2,0-8.5-3.7-8.5-9.3c0-3.2,0.7-5.4,2.2-7.1c1.5-1.7,3.3-2.4,5.7-2.4  c2.1,0,4,0.7,5.2,1.9c1.7,1.7,2.4,4.1,2.4,7.9v1.1h-10.4v0.1c0,2.8,1.4,4.4,3.8,4.4c1.6,0,3.1-0.6,4.6-1.8L209.6,170.7z   M204.9,161.7v-0.2c0-1.3-0.1-2-0.6-2.7c-0.5-0.7-1.1-1.1-2.1-1.1c-1.8,0-2.8,1.4-2.8,3.9v0.1H204.9z"/>
<path class="st0" d="M219.8,149.7c0,1.6-1.3,2.9-2.9,2.9c-1.6,0-2.9-1.3-2.9-2.9c0-1.6,1.3-2.9,3-2.9  C218.5,146.8,219.8,148.1,219.8,149.7 M219.2,154.2v18.4h-4.7V155L219.2,154.2z"/>
<path class="st0" d="M228.7,154.2c0.4,0.7,0.7,1.5,0.7,2.3c0.7-0.5,1.3-0.9,2.1-1.3c1-0.5,2.2-0.8,3.2-0.8c2,0,3.8,1.1,4.3,2.6  c0.2,0.7,0.4,1.4,0.4,2.6v13.2h-4.6V161c0-2-0.4-2.6-1.6-2.6c-1,0-2.2,0.6-3.3,1.6v12.7h-4.7v-13.1c0-1.5-0.2-3-0.6-4.2L228.7,154.2  z"/>
<polygon class="st0" points="243.7,148.5 259.6,148.5 259.5,151 252.9,151 252.9,172.7 250.1,172.7 250.1,151 243.7,151 "/>
<path class="st0" d="M265.4,147.6c1.2,0,2.1,1,2.1,2.1c0,1.2-1,2.1-2.1,2.1c-1.2,0-2.1-0.9-2.1-2.1  C263.3,148.6,264.2,147.6,265.4,147.6 M264,155.2l2.8-0.5v17.9H264V155.2z"/>
<path class="st0" d="M273.2,155.4l2.7-0.7c0,0,0.7,1.4,0.6,2.8c1.3-1.8,3.1-2.9,4.9-2.9c0.5,0,0.9,0.2,0.9,0.2l-1.1,3  c-0.2-0.1-0.5-0.1-0.8-0.1c-1.1,0-2.1,0.5-2.9,1.3c-0.8,0.8-1,1.3-1,2.8v11h-2.7v-13.5C273.8,156.6,273.2,155.4,273.2,155.4"/>
<path class="st0" d="M292.5,154.6c2.9,0,4.8,1.3,6,3.1c1.1,1.6,1.6,3.7,1.6,6.5c0,5.8-3.1,8.9-7.5,8.9c-4.8,0-7.6-3.6-7.6-9.3  C285.1,158.1,287.9,154.6,292.5,154.6 M292.5,156.9c-1.5,0-3,0.7-3.6,1.9c-0.6,1.1-0.8,2.5-0.8,4.6c0,2.5,0.4,4.6,1.1,5.7  c0.6,1.1,2,1.8,3.6,1.8c1.8,0,3.2-1,3.8-2.6c0.4-1.1,0.5-2.1,0.5-3.8c0-2.5-0.2-4.1-0.8-5.3C295.5,157.6,293.9,156.9,292.5,156.9"/>
<path class="st0" d="M309,169.2c0,1.4,0.2,1.8,1,1.8c0.1,0,0.4-0.1,0.4-0.1l0.6,1.8c-0.7,0.3-1,0.4-1.8,0.4c-0.8,0-1.5-0.2-2.1-0.7  c-0.6-0.5-0.8-1.2-0.8-2.5v-18.6c0-2.3-0.4-3.6-0.4-3.6l2.7-0.5c0,0,0.5,1.5,0.5,4.2V169.2z"/>
<rect y="189" class="st1" width="106.8" height="7.2"/>
<rect x="106.8" y="189" class="st2" width="106.8" height="7.2"/>
<rect x="213.5" y="189" class="st3" width="98.5" height="7.2"/>
</svg>